<?xml version="1.0" encoding="UTF-8" standalone="no"?>
<svg width="30" height="30" viewBox="0 0 30 30" fill="none" version="1.1" id="svg6"
    sodipodi:docname="logo.svg" inkscape:version="1.1.1 (3bf5ae0d25, 2021-09-20)"
    xmlns:inkscape="http://www.inkscape.org/namespaces/inkscape"
    xmlns:sodipodi="http://sodipodi.sourceforge.net/DTD/sodipodi-0.dtd"
    xmlns="http://www.w3.org/2000/svg">
    <defs id="defs10" />
    <sodipodi:namedview id="namedview8" pagecolor="#ffffff" bordercolor="#666666"
        borderopacity="1.0" inkscape:pageshadow="2" inkscape:pageopacity="0.0"
        inkscape:pagecheckerboard="0" showgrid="false" inkscape:zoom="14.55" inkscape:cx="14.879725"
        inkscape:cy="11.305842" inkscape:window-width="1920" inkscape:window-height="964"
        inkscape:window-x="0" inkscape:window-y="72" inkscape:window-maximized="1"
        inkscape:current-layer="svg6" />
    <path id="path1050"
        style="fill:#4e064f;fill-opacity:1;fill-rule:evenodd;stroke:none;stroke-width:6.50695px;stroke-linecap:butt;stroke-linejoin:miter;stroke-opacity:1"
        d="M 15 0 A 15 15 0 0 0 0 15 A 15 15 0 0 0 15 30 A 15 15 0 0 0 30 15 A 15 15 0 0 0 15 0 z M 15.121094 4.8007812 C 17.729184 4.800825 20.338225 5.7952413 22.328125 7.7851562 C 23.718025 9.1750262 24.621916 10.866138 25.041016 12.648438 L 26.628906 12.662109 C 26.717606 12.662809 26.802534 12.697066 26.865234 12.759766 C 26.997034 12.891566 26.997034 13.106381 26.865234 13.238281 L 23.021484 17.082031 C 22.889584 17.213831 22.676722 17.213831 22.544922 17.082031 L 18.638672 13.175781 C 18.574672 13.111781 18.540216 13.025947 18.541016 12.935547 C 18.542416 12.749147 18.694559 12.598109 18.880859 12.599609 L 20.757812 12.615234 C 20.459713 11.907434 20.021812 11.244569 19.445312 10.667969 C 17.069612 8.2923787 13.224684 8.2797194 10.833984 10.630859 C 10.823484 10.645359 10.811828 10.658875 10.798828 10.671875 L 10.796875 10.675781 C 10.665075 10.807681 10.450159 10.807681 10.318359 10.675781 L 7.9140625 8.2695312 C 7.7822525 8.1377212 7.7822525 7.9247787 7.9140625 7.7929688 L 7.9160156 7.7890625 L 7.9179688 7.7871094 L 7.9160156 7.7851562 C 9.9059756 5.7953263 12.513004 4.8007375 15.121094 4.8007812 z M 7.1816406 12.599609 C 7.2680144 12.599609 7.3540169 12.633319 7.4199219 12.699219 L 11.324219 16.603516 C 11.388219 16.667516 11.424628 16.755203 11.423828 16.845703 C 11.422428 17.032003 11.270384 17.181188 11.083984 17.179688 L 9.4042969 17.166016 C 9.7018369 17.949116 10.166175 18.683753 10.796875 19.314453 C 13.184775 21.702353 17.057312 21.702353 19.445312 19.314453 C 19.526012 19.233753 19.604488 19.152359 19.679688 19.068359 L 19.689453 19.078125 C 19.821453 18.947925 20.032763 18.948778 20.164062 19.080078 L 22.570312 21.484375 C 22.702112 21.616175 22.702112 21.829138 22.570312 21.960938 L 22.566406 21.964844 C 22.548506 21.982744 22.528412 21.998619 22.507812 22.011719 C 22.448413 22.074219 22.389525 22.135866 22.328125 22.197266 C 18.348225 26.177166 11.893952 26.177166 7.9140625 22.197266 C 6.4721625 20.755366 5.55337 18.988713 5.15625 17.132812 L 3.3339844 17.119141 C 3.2453944 17.118541 3.1622494 17.082131 3.0996094 17.019531 C 2.9678094 16.887631 2.9678094 16.674769 3.0996094 16.542969 L 6.9433594 12.699219 C 7.0092694 12.633319 7.0952669 12.599609 7.1816406 12.599609 z " />
</svg>
