<?xml version="1.0" encoding="UTF-8" standalone="no"?>
<svg width="30" height="30" viewBox="0 0 30 30" fill="none" version="1.1" id="svg6"
    sodipodi:docname="logo.svg" inkscape:version="1.1 (c68e22c387, 2021-05-23)"
    xmlns:inkscape="http://www.inkscape.org/namespaces/inkscape"
    xmlns:sodipodi="http://sodipodi.sourceforge.net/DTD/sodipodi-0.dtd"
    xmlns="http://www.w3.org/2000/svg">
    <defs id="defs10" />
    <sodipodi:namedview id="namedview8" pagecolor="#ffffff" bordercolor="#666666"
        borderopacity="1.0" inkscape:pageshadow="2" inkscape:pageopacity="0.0"
        inkscape:pagecheckerboard="0" showgrid="false" inkscape:zoom="14.55" inkscape:cx="3.5738832"
        inkscape:cy="16.804124" inkscape:window-width="1920" inkscape:window-height="964"
        inkscape:window-x="1920" inkscape:window-y="72" inkscape:window-maximized="1"
        inkscape:current-layer="svg6" />
    <path
        d="M15 30C23.2843 30 30 23.2843 30 15C30 6.71575 23.2843 0 15 0C6.71569 0 0 6.71575 0 15C0 23.2843 6.71569 30 15 30Z"
        fill="#4E064F" id="path2" style="stroke:none" />
    <path fill-rule="evenodd" clip-rule="evenodd"
        d="M7.91528 7.78467L7.9185 7.78789L7.91685 7.78952L7.91373 7.79265C7.78192 7.92446 7.78192 8.13815 7.91373 8.26996L10.3189 10.6751C10.4507 10.807 10.6644 10.807 10.7962 10.6751L10.7994 10.672C10.8124 10.659 10.8241 10.6452 10.8346 10.6307C13.2253 8.27956 17.0694 8.29181 19.4451 10.6674C20.0216 11.244 20.459 11.907 20.7571 12.6148L18.8805 12.6C18.6942 12.5985 18.5419 12.7484 18.5405 12.9348C18.5397 13.0252 18.5753 13.1121 18.6393 13.1761L22.5444 17.0813C22.6762 17.2131 22.8898 17.2131 23.0217 17.0813L26.8656 13.2374C26.9974 13.1055 26.9974 12.8919 26.8656 12.7601C26.8029 12.6974 26.7182 12.6619 26.6295 12.6612L25.041 12.6486C24.6219 10.8663 23.7174 9.1748 22.3275 7.78493C18.3477 3.8051 11.8952 3.80501 7.91528 7.78467ZM19.6789 19.0679C19.6037 19.1519 19.5258 19.2342 19.4451 19.3149C17.0571 21.7028 13.1854 21.7028 10.7975 19.3149C10.1668 18.6842 9.70263 17.9499 9.40509 17.1668L11.0838 17.1801C11.2702 17.1816 11.4225 17.0316 11.4239 16.8453C11.4247 16.7548 11.3891 16.6678 11.3251 16.6038L7.42002 12.6988C7.28821 12.567 7.07453 12.567 6.94271 12.6988L3.09885 16.5427C2.96705 16.6745 2.96705 16.8881 3.09885 17.02C3.16149 17.0826 3.24624 17.1182 3.33483 17.1188L5.15649 17.1332C5.55361 18.9891 6.47311 20.7555 7.91501 22.1974C11.8949 26.1773 18.3476 26.1773 22.3275 22.1974C22.3889 22.136 22.4493 22.0741 22.5087 22.0116C22.5293 21.9985 22.5488 21.983 22.5667 21.9651L22.5698 21.9619C22.7016 21.8301 22.7016 21.6164 22.5698 21.4846L20.1646 19.0794C20.0333 18.9481 19.8208 18.9476 19.6888 19.0778L19.6789 19.0679Z"
        fill="white" id="path4" />
</svg>
