<?xml version="1.0" encoding="UTF-8" standalone="no"?>
<svg width="200" height="150" viewBox="0 0 200 150" fill="none" version="1.1" id="svg6"
    sodipodi:docname="logo_about.svg" inkscape:version="1.1.1 (3bf5ae0d25, 2021-09-20)"
    xmlns:inkscape="http://www.inkscape.org/namespaces/inkscape"
    xmlns:sodipodi="http://sodipodi.sourceforge.net/DTD/sodipodi-0.dtd" xmlns="http://www.w3.org/2000/svg">
    <defs id="defs10" />
    <sodipodi:namedview id="namedview8" pagecolor="#ffffff" bordercolor="#666666" borderopacity="1.0"
        inkscape:pageshadow="2" inkscape:pageopacity="0.0" inkscape:pagecheckerboard="0" showgrid="false"
        inkscape:zoom="1.4142136" inkscape:cx="15.202796" inkscape:cy="141.77491" inkscape:window-width="1920"
        inkscape:window-height="964" inkscape:window-x="1920" inkscape:window-y="72" inkscape:window-maximized="1"
        inkscape:current-layer="svg6" fit-margin-top="0" fit-margin-left="0" fit-margin-right="0"
        fit-margin-bottom="0" />
    <path fill-rule="evenodd" clip-rule="evenodd"
        d="m 150.6719,55.742893 c 0,27.985423 -22.68671,50.671807 -50.671975,50.671807 -27.985423,0 -50.671825,-22.686384 -50.671825,-50.671807 0,-27.985112 22.686402,-50.6718254 50.671825,-50.6718254 27.985265,0 50.671975,22.6867134 50.671975,50.6718254 z m -74.593636,-24.362391 -0.01087,-0.01087 c 13.444552,-13.443792 35.241886,-13.443481 48.686286,9.32e-4 4.69528,4.69513 7.75075,10.409111 9.16655,16.430161 l 5.36625,0.04238 c 0.2993,0.0025 0.58557,0.122329 0.79732,0.33408 0.44538,0.445232 0.44538,1.166951 0,1.61234 l -12.98504,12.985193 c -0.44538,0.445232 -1.1671,0.445232 -1.61234,0 L 112.29445,49.582591 c -0.21625,-0.216095 -0.33642,-0.509658 -0.33393,-0.815173 0.004,-0.629816 0.51944,-1.136059 1.14879,-1.130937 l 6.3393,0.04998 c -1.00706,-2.391032 -2.48449,-4.63086 -4.43216,-6.578522 -8.02538,-8.025065 -21.011032,-8.066514 -29.087322,-0.124038 -0.03539,0.04891 -0.07499,0.09563 -0.119071,0.139562 l -0.01087,0.01056 c -0.445234,0.445232 -1.167108,0.445232 -1.612341,0 l -8.12504,-8.125041 c -0.445234,-0.445233 -0.445234,-1.167108 0,-1.61234 l 0.01087,-0.01056 z m 38.938186,38.939742 c 0.27261,-0.272448 0.5359,-0.550797 0.79003,-0.834424 l 0.0334,0.03353 c 0.44601,-0.439956 1.16369,-0.438093 1.60722,0.0051 l 8.12519,8.125351 c 0.44508,0.445234 0.44508,1.166796 0,1.612185 l -0.0109,0.01071 c -0.0605,0.0607 -0.12637,0.113016 -0.19592,0.15726 -0.20087,0.211128 -0.40486,0.420239 -0.61211,0.627486 -13.44471,13.444691 -35.242663,13.444691 -48.687215,0 C 71.195282,75.186734 68.08905,69.219398 66.74745,62.950117 l -6.153719,-0.04875 c -0.299259,-0.002 -0.585556,-0.122175 -0.797181,-0.333614 -0.445233,-0.445699 -0.445233,-1.167263 0,-1.612496 l 12.985012,-12.98483 c 0.445388,-0.445389 1.167262,-0.445389 1.612495,0 l 13.191809,13.191489 c 0.216097,0.216251 0.336254,0.510124 0.33377,0.815639 -0.0047,0.62935 -0.519438,1.13606 -1.148788,1.130936 l -5.67098,-0.04487 c 1.005035,2.645473 2.572976,5.125925 4.703669,7.256617 8.066829,8.06667 21.145623,8.06667 29.212603,0 z"
        fill="#4e0d4e" id="path2" style="stroke-width:1.55242" />
    <path
        d="m 10.790075,150 c -2.2352879,0 -4.1614521,-0.55887 -5.7784933,-1.67651 -1.6051645,-1.11764 -2.841657,-2.66334 -3.7096435,-4.6371 C 0.43395172,141.70085 0,139.41797 0,136.83785 v -0.37457 c 0,-2.58013 0.42805496,-4.85702 1.2840818,-6.83078 0.8679865,-1.98554 2.1104588,-3.53722 3.7274999,-4.65487 1.6170412,-1.12952 3.5432054,-1.69428 5.7784933,-1.69428 2.366095,0 4.345746,0.56476 5.939034,1.69428 1.604998,1.11765 2.817571,2.66933 3.638135,4.65487 0.820563,1.97376 1.230844,4.25065 1.230844,6.83078 v 0.37457 c 0,2.58012 -0.410281,4.863 -1.230844,6.84854 -0.820564,1.97376 -2.033137,3.51946 -3.638135,4.6371 C 15.135821,149.44113 13.15617,150 10.790075,150 Z m 0,-2.92496 c 1.724013,0 3.11515,-0.42806 4.173328,-1.28408 1.070137,-0.85611 1.854821,-2.051 2.354136,-3.58482 0.499148,-1.5457 0.749138,-3.33516 0.749138,-5.36829 v -0.4102 c 0,-2.02134 -0.255804,-3.79286 -0.766579,-5.31481 -0.499647,-1.53382 -1.284414,-2.7287 -2.354469,-3.58481 -1.070137,-0.86799 -2.455294,-1.30194 -4.155554,-1.30194 -1.5575757,0 -2.8773703,0.43395 -3.9593012,1.30194 -1.082014,0.86798 -1.9024111,2.06884 -2.4612745,3.60267 -0.5587803,1.52186 -0.8382535,3.28756 -0.8382535,5.29695 v 0.4102 c 0,2.02126 0.2794732,3.80474 0.8382535,5.35044 0.5588634,1.53382 1.3792605,2.73468 2.4612745,3.60267 1.0819309,0.85602 2.4017255,1.28408 3.9593012,1.28408 z m 13.394283,2.55039 v -2.24716 l 2.906853,-0.4994 v -13.78638 l -2.906853,-0.4994 v -2.26502 h 6.045425 l 0.249989,2.87148 c 0.641999,-1.02255 1.444291,-1.81322 2.407705,-2.37208 0.975042,-0.57074 2.080477,-0.85603 3.317136,-0.85603 2.080476,0 3.691704,0.61227 4.833682,1.83697 1.141148,1.21274 1.711721,3.0914 1.711721,5.63581 v 9.43465 l 2.906854,0.4994 v 2.24716 h -9.326847 v -2.24716 l 2.906853,-0.4994 v -9.36331 c 0,-1.70026 -0.338856,-2.9071 -1.016568,-3.62045 -0.666085,-0.71342 -1.688467,-1.07013 -3.067976,-1.07013 -1.010755,0 -1.908557,0.24376 -2.692577,0.7312 -0.773223,0.48752 -1.391137,1.15335 -1.855404,1.9975 v 11.32519 l 2.907685,0.4994 v 2.24716 z m 23.845335,0 v -2.24716 l 2.906854,-0.4994 v -13.78638 l -2.906854,-0.4994 v -2.26502 h 6.419994 v 16.5508 l 2.906854,0.4994 v 2.24716 z m 2.72829,-24.0592 v -3.76321 h 3.691704 v 3.76321 z M 68.503909,150 c -1.783978,0 -3.32378,-0.41618 -4.619406,-1.24845 -1.283999,-0.84424 -2.277312,-2.00349 -2.978279,-3.47785 -0.701797,-1.48623 -1.052281,-3.18051 -1.052281,-5.08292 v -0.39234 c 0,-1.90242 0.350484,-3.5908 1.052281,-5.06516 0.700967,-1.48623 1.69428,-2.65138 2.978279,-3.49561 1.295626,-0.84415 2.823801,-1.26623 4.583693,-1.26623 1.783147,0 3.317135,0.42208 4.601134,1.26623 1.296457,0.84423 2.294753,2.00349 2.996551,3.47784 0.700967,1.47436 1.052281,3.16864 1.052281,5.08293 v 0.39234 c 0,1.91429 -0.351314,3.61455 -1.052281,5.10078 -0.701798,1.47436 -1.69428,2.62771 -2.978279,3.45999 C 71.802772,149.58382 70.275429,150 68.503909,150 Z m 0,-2.74656 c 1.664381,0 2.930939,-0.66584 3.798842,-1.99751 0.867904,-1.33167 1.30144,-3.02006 1.30144,-5.06515 v -0.39234 c 0,-1.35551 -0.196005,-2.56227 -0.588015,-3.62053 -0.380382,-1.07006 -0.951787,-1.90831 -1.712552,-2.51468 -0.760765,-0.61825 -1.705908,-0.92745 -2.835428,-0.92745 -1.117893,0 -2.057222,0.3092 -2.817987,0.92745 -0.760765,0.60637 -1.331339,1.44462 -1.712552,2.51468 -0.380382,1.05826 -0.570574,2.26502 -0.570574,3.62053 v 0.39234 c 0,2.04509 0.428554,3.73348 1.283999,5.06515 0.867903,1.33167 2.152733,1.99751 3.852827,1.99751 z m 11.325102,2.37199 v -2.24716 l 2.906853,-0.4994 v -13.78638 l -2.906853,-0.4994 v -2.26502 h 6.046255 l 0.249159,2.87148 c 0.641999,-1.02255 1.445121,-1.81322 2.407705,-2.37208 0.975042,-0.57074 2.080477,-0.85603 3.317136,-0.85603 2.081307,0 3.691704,0.61227 4.833682,1.83697 1.141147,1.21274 1.711721,3.0914 1.711721,5.63581 v 9.43465 l 2.907681,0.4994 v 2.24716 h -9.327675 v -2.24716 l 2.906854,-0.4994 v -9.36331 c 0,-1.70026 -0.338856,-2.9071 -1.016568,-3.62045 -0.666085,-0.71342 -1.688467,-1.07013 -3.067976,-1.07013 -1.009924,0 -1.907727,0.24376 -2.692577,0.7312 -0.773224,0.48752 -1.391138,1.15335 -1.855404,1.9975 v 11.32519 l 2.907685,0.4994 v 2.24716 z M 113.2869,150 c -1.58133,0 -3.10286,-0.23189 -4.56543,-0.69557 -1.46256,-0.46377 -2.85951,-1.17711 -4.19168,-2.14019 v -5.54669 h 2.72912 l 0.58885,4.08421 c 0.77239,0.47556 1.61039,0.84415 2.51401,1.10577 0.90362,0.26161 1.87866,0.39234 2.92513,0.39234 1.77152,0 3.14521,-0.39234 4.12025,-1.17711 0.97504,-0.79656 1.46257,-1.83697 1.46257,-3.12105 0,-1.18899 -0.44019,-2.1759 -1.31972,-2.96059 -0.88036,-0.78477 -2.45006,-1.43275 -4.7091,-1.94402 -2.68676,-0.61825 -4.73817,-1.55758 -6.15256,-2.8179 -1.41522,-1.27221 -2.12284,-2.87139 -2.12284,-4.79756 0,-1.35551 0.35713,-2.56824 1.07056,-3.63838 0.72505,-1.07006 1.72999,-1.91421 3.01399,-2.53254 1.284,-0.61824 2.78227,-0.92737 4.49399,-0.92737 1.81969,0 3.42428,0.27939 4.81542,0.83826 1.40359,0.5469 2.55637,1.21274 3.45998,1.99742 v 5.18998 h -2.72829 l -0.58884,-3.70964 c -0.53486,-0.42806 -1.20095,-0.78477 -1.99743,-1.07006 -0.79648,-0.28537 -1.78314,-0.42805 -2.96084,-0.42805 -1.5099,0 -2.7341,0.38636 -3.67343,1.15925 -0.9277,0.77281 -1.39113,1.79536 -1.39113,3.06756 0,1.11765 0.44599,2.03322 1.33715,2.74656 0.89199,0.70155 2.4376,1.32578 4.63768,1.87268 2.7341,0.67771 4.80295,1.68241 6.20654,3.01408 1.41439,1.31979 2.12201,2.95469 2.12201,4.90461 0,1.39113 -0.37457,2.62771 -1.12371,3.70964 -0.74914,1.07014 -1.80723,1.90839 -3.17428,2.51476 -1.35543,0.60637 -2.95503,0.9096 -4.79797,0.9096 z m 11.57509,-0.37457 v -2.24716 l 2.90685,-0.4994 v -22.31143 l -2.90685,-0.4994 v -2.26502 h 6.42082 v 11.0933 c 0.66526,-0.92737 1.48,-1.64677 2.44342,-2.15805 0.96258,-0.51127 2.03314,-0.76683 3.21,-0.76683 2.06885,0 3.67426,0.61825 4.81541,1.85483 1.14114,1.23649 1.71172,3.1389 1.71172,5.70715 v 9.34545 l 2.90768,0.4994 v 2.24716 h -9.32768 v -2.24716 l 2.90686,-0.4994 v -9.38117 c 0,-3.11515 -1.36124,-4.67272 -4.08455,-4.67272 -0.96258,0 -1.84294,0.23188 -2.63942,0.69557 -0.78485,0.4518 -1.43266,1.07005 -1.94344,1.85482 v 11.5035 l 2.90685,0.4994 v 2.24716 z M 155.02101,150 c -2.00988,0 -3.53723,-0.48752 -4.58369,-1.46248 -1.04647,-0.98684 -1.56971,-2.37208 -1.56971,-4.15556 0,-1.83107 0.74914,-3.29944 2.24742,-4.40521 1.49827,-1.11764 3.57875,-1.67642 6.24226,-1.67642 h 3.44171 v -1.89054 c 0,-1.16523 -0.35629,-2.06885 -1.06972,-2.71093 -0.7018,-0.642 -1.69428,-0.96308 -2.97828,-0.96308 -0.80893,0 -1.51073,0.10107 -2.10456,0.30322 -0.59466,0.19028 -1.13617,0.45779 -1.62286,0.80255 l -0.37456,2.69307 h -2.71168 v -4.42307 c 1.74826,-1.42676 4.0372,-2.14011 6.86682,-2.14011 2.34209,0 4.17922,0.55878 5.51139,1.67643 1.33134,1.11764 1.99742,2.71683 1.99742,4.79763 v 9.29197 c 0,0.24966 0,0.49342 0,0.7312 0.0116,0.23778 0.0291,0.47556 0.0532,0.71342 l 1.87284,0.19618 v 2.24716 h -5.04713 c -0.20265,-0.97496 -0.32723,-1.8608 -0.37457,-2.65736 -0.67771,0.8679 -1.52817,1.5932 -2.55055,2.17582 C 157.256,149.71463 156.17382,150 155.02105,150 Z m 0.51659,-2.94282 c 1.16523,0 2.22997,-0.27939 3.19255,-0.83817 0.96342,-0.55886 1.65276,-1.23068 2.06885,-2.01536 v -3.49562 h -3.56712 c -1.61704,0 -2.82962,0.38636 -3.63772,1.15926 -0.80894,0.7728 -1.21341,1.63481 -1.21341,2.58602 0,1.73597 1.05229,2.60387 3.15685,2.60387 z m 13.39395,2.56825 v -2.24716 l 2.90768,-0.4994 v -13.78638 l -2.90768,-0.4994 v -2.26502 h 6.04625 l 0.30315,2.46128 0.0357,0.33885 c 0.54732,-0.98692 1.21922,-1.75972 2.0157,-2.31859 0.8081,-0.55878 1.72999,-0.83817 2.764,-0.83817 0.36875,0 0.74332,0.0356 1.1237,0.10698 0.39201,0.0595 0.6719,0.11893 0.83801,0.17831 l -0.46344,3.26382 -2.44341,-0.14269 c -0.92771,-0.0595 -1.70591,0.15456 -2.33628,0.64208 -0.63038,0.47556 -1.1179,1.11765 -1.46257,1.92617 v 10.93276 l 2.90686,0.4994 v 2.24716 z M 192.63403,150 c -1.78314,0 -3.33457,-0.4043 -4.65428,-1.21282 -1.31972,-0.8204 -2.34293,-1.9559 -3.06798,-3.40642 -0.71343,-1.4506 -1.06972,-3.12711 -1.06972,-5.02944 v -0.78477 c 0,-1.83107 0.37457,-3.46588 1.1237,-4.90461 0.76077,-1.45052 1.76571,-2.592 3.014,-3.42427 1.25991,-0.84415 2.6336,-1.26623 4.11942,-1.26623 2.59208,0 4.5538,0.78469 5.88597,2.35414 1.34296,1.56953 2.01486,3.66214 2.01486,6.27789 v 2.19368 h -12.52023 l -0.0532,0.0892 c 0.0357,1.85482 0.50496,3.38266 1.40858,4.58352 0.90445,1.18899 2.17017,1.78357 3.79884,1.78357 1.18932,0 2.22997,-0.16652 3.12113,-0.4994 0.90362,-0.34484 1.68266,-0.8145 2.33711,-1.40899 l 1.37287,2.28287 c -0.68934,0.66584 -1.60541,1.2306 -2.74656,1.69428 -1.12952,0.45189 -2.49076,0.6778 -4.08455,0.6778 z m -5.04713,-11.94941 h 8.89996 v -0.46369 c 0,-1.37926 -0.36876,-2.53253 -1.10627,-3.45998 -0.73668,-0.92737 -1.83048,-1.39114 -3.28142,-1.39114 -1.17686,0 -2.1818,0.4994 -3.01399,1.49819 -0.83219,0.98684 -1.3438,2.22931 -1.53399,3.72742 z"
        fill="#333333" id="path4" style="stroke-width:0.83053" />
</svg>
