<?xml version="1.0" encoding="UTF-8" standalone="no"?>
<svg width="242" height="180" viewBox="0 0 242 180" fill="none" version="1.1" id="svg129"
    sodipodi:docname="share_empty_state.svg" inkscape:version="1.1 (c68e22c387, 2021-05-23)"
    xmlns:inkscape="http://www.inkscape.org/namespaces/inkscape"
    xmlns:sodipodi="http://sodipodi.sourceforge.net/DTD/sodipodi-0.dtd"
    xmlns="http://www.w3.org/2000/svg">
    <sodipodi:namedview id="namedview131" pagecolor="#ffffff" bordercolor="#666666"
        borderopacity="1.0" inkscape:pageshadow="2" inkscape:pageopacity="0.0"
        inkscape:pagecheckerboard="0" showgrid="false" inkscape:zoom="3.4294679"
        inkscape:cx="123.63434" inkscape:cy="109.20061" inkscape:window-width="956"
        inkscape:window-height="1000" inkscape:window-x="2884" inkscape:window-y="36"
        inkscape:window-maximized="1" inkscape:current-layer="svg129" />
    <path d="m 176.439,171.027 h -4.792 l -2.28,-18.483 h 7.072 z" fill="#9e616a" id="path2"
        style="stroke:none" />
    <path
        d="m 178.968,179.33 h -3.436 l -0.613,-3.245 -1.572,3.245 h -9.114 c -0.437,0 -0.862,-0.14 -1.214,-0.399 -0.352,-0.259 -0.612,-0.623 -0.742,-1.04 -0.13,-0.418 -0.123,-0.865 0.019,-1.278 0.143,-0.413 0.413,-0.77 0.773,-1.018 l 7.278,-5.027 v -3.28 l 7.656,0.457 z"
        fill="#2f2e41" id="path4" style="stroke:none" />
    <path d="m 204.908,164.98 -3.845,2.859 -12.859,-13.471 5.675,-4.22 z" fill="#9e616a" id="path6"
        style="stroke:none" />
    <path
        d="m 211.892,170.133 -2.758,2.051 -2.428,-2.238 0.675,3.541 -7.313,5.439 c -0.351,0.261 -0.776,0.402 -1.213,0.405 -0.436,0.002 -0.863,-0.136 -1.216,-0.393 -0.353,-0.257 -0.615,-0.62 -0.747,-1.036 -0.132,-0.417 -0.128,-0.865 0.013,-1.278 l 2.841,-8.377 -1.957,-2.632 6.416,-4.202 z"
        fill="#2f2e41" id="path8" style="stroke:none" />
    <path
        d="m 182.018,75.6641 c 0,0 9.092,7.855 4.897,30.2479 l -5.121,21.941 16.702,27.709 -5.325,6.478 -21.714,-29.991 -7.868,-18.456 -2.208,-32.8493 z"
        fill="#2f2e41" id="path10" style="stroke:none" />
    <path d="m 167.926,118.852 -0.547,8.469 1.674,36.091 7.875,-1.372 1.504,-25.696 z"
        fill="#2f2e41" id="path12" style="stroke:none" />
    <path d="m 66.8685,175.373 h 4.2855 l 2.0384,-16.529 H 66.868 Z" fill="#ffb6b6" id="path14"
        style="stroke:none" />
    <path
        d="m 65.7755,173.974 h 1.2062 l 4.7092,-1.915 2.5239,1.914 h 3e-4 c 1.4264,0 2.7943,0.567 3.8029,1.576 1.0086,1.008 1.5752,2.376 1.5753,3.803 v 0.174 l -13.8175,10e-4 z"
        fill="#2f2e41" id="path16" style="stroke:none" />
    <path d="m 83.4751,172.673 4.1799,0.943 5.6296,-15.674 -6.1692,-1.393 z" fill="#ffb6b6"
        id="path18" style="stroke:none" />
    <path
        d="m 82.7169,171.067 1.1766,0.266 5.0153,-0.831 2.0402,2.424 h 3e-4 c 1.3913,0.314 2.6008,1.168 3.3625,2.374 0.7616,1.206 1.013,2.665 0.699,4.056 l -0.0385,0.171 -13.4783,-3.043 z"
        fill="#2f2e41" id="path20" style="stroke:none" />
    <path
        d="m 61.4411,74.3232 c -2.0091,6.0596 -1.7967,12.6372 0.483,19.6966 l 0.9745,39.7462 c 0,0 -1.452,26.066 3.2332,35.238 h 6.7948 l 3.3642,-37.618 0.4225,-25.249 14.5674,21.302 -9.2784,40.95 8.3628,0.747 15.0559,-44.44 -18.5761,-43.1145 z"
        fill="#2f2e41" id="path22" style="stroke:none" />
    <path
        d="m 139.8,57.0628 c 5.198,-4.6834 12.928,-7.0383 19.413,-4.4122 -6.652,3.693 -11.783,9.6197 -14.486,16.7316 -1.032,2.7465 -1.894,5.9088 -4.433,7.3792 -1.58,0.9149 -3.546,0.9597 -5.317,0.518 -1.772,-0.4417 -3.395,-1.3272 -4.997,-2.2038 l -0.455,-0.0103 C 131.57,68.375 134.603,61.7461 139.8,57.0628 Z"
        fill="#e6e6e6" id="path24" style="stroke:none" />
    <path
        d="m 159.176,52.7933 c -5.743,0.7421 -11.106,3.275 -15.327,7.2388 -0.924,0.8372 -1.711,1.8148 -2.33,2.8968 -0.57,1.0735 -0.841,2.2799 -0.787,3.4939 0.028,1.1329 0.188,2.2885 -0.06,3.4085 -0.135,0.5715 -0.39,1.1078 -0.747,1.574 -0.357,0.4661 -0.809,0.8514 -1.325,1.1307 -1.269,0.7295 -2.725,0.9594 -4.156,1.1349 -1.589,0.1947 -3.242,0.3719 -4.618,1.2631 -0.166,0.108 -0.324,-0.1569 -0.158,-0.2647 2.393,-1.5507 5.421,-0.9864 7.995,-2.0213 1.2,-0.4829 2.263,-1.3306 2.639,-2.6122 0.329,-1.1207 0.165,-2.3125 0.126,-3.4594 -0.07,-1.1835 0.15,-2.3663 0.642,-3.445 0.563,-1.11 1.31,-2.1163 2.21,-2.9756 1.995,-1.967 4.288,-3.608 6.793,-4.863 2.851,-1.4481 5.929,-2.3977 9.1,-2.8079 0.197,-0.0253 0.198,0.2832 0.003,0.3084 z"
        fill="#ffffff" id="path26" style="stroke:none" />
    <path
        d="m 145.133,58.6753 c -0.569,-0.7986 -0.836,-1.7733 -0.752,-2.7503 0.083,-0.9769 0.511,-1.8923 1.207,-2.5828 0.142,-0.1392 0.365,0.0739 0.223,0.2133 -0.649,0.6418 -1.048,1.4945 -1.124,2.4044 -0.076,0.9099 0.176,1.8169 0.711,2.5574 0.115,0.161 -0.15,0.3181 -0.265,0.158 z"
        fill="#ffffff" id="path28" style="stroke:none" />
    <path
        d="m 140.642,65.8501 c 1.974,0.3497 4.007,-0.0573 5.694,-1.1399 0.167,-0.1074 0.325,0.1575 0.158,0.2647 -1.758,1.1233 -3.874,1.5426 -5.927,1.1742 -0.196,-0.0352 -0.119,-0.334 0.075,-0.299 z"
        fill="#ffffff" id="path30" style="stroke:none" />
    <path
        d="m 152.949,54.2526 c 0.156,0.3548 0.397,0.6654 0.703,0.9039 0.305,0.2385 0.665,0.3974 1.047,0.4624 0.196,0.0328 0.119,0.3315 -0.075,0.299 -0.422,-0.0738 -0.819,-0.2498 -1.157,-0.5125 -0.338,-0.2627 -0.607,-0.6043 -0.783,-0.9947 -0.019,-0.0355 -0.025,-0.077 -0.015,-0.1163 0.01,-0.0393 0.035,-0.0733 0.069,-0.0951 0.035,-0.0208 0.077,-0.0268 0.116,-0.0169 0.04,0.01 0.074,0.0352 0.095,0.0702 z"
        fill="#ffffff" id="path32" style="stroke:none" />
    <path
        d="m 166.353,75.2362 c -0.123,-0.017 -0.246,-0.034 -0.371,-0.0491 -1.654,-0.2195 -3.324,-0.3044 -4.992,-0.2536 -0.129,0.0019 -0.259,0.0058 -0.388,0.0113 -4.018,0.1653 -7.97,1.0749 -11.655,2.6828 -1.466,0.6412 -2.881,1.393 -4.233,2.2488 -1.867,1.1821 -3.797,2.6123 -5.884,3.0944 -0.217,0.0528 -0.438,0.092 -0.66,0.1175 l -8.623,-7.4663 c -0.011,-0.0268 -0.024,-0.0517 -0.035,-0.0786 l -0.358,-0.2824 c 0.067,-0.049 0.137,-0.0984 0.204,-0.1474 0.038,-0.0286 0.079,-0.0555 0.117,-0.0841 0.027,-0.0185 0.053,-0.037 0.076,-0.0552 0.008,-0.0062 0.017,-0.0124 0.024,-0.0166 0.023,-0.0182 0.046,-0.0328 0.067,-0.049 0.391,-0.2772 0.785,-0.5522 1.182,-0.8248 0.002,-0.002 0.002,-0.002 0.006,-0.0023 3.003,-2.1066 6.245,-3.8496 9.659,-5.1923 0.102,-0.0387 0.206,-0.0794 0.313,-0.1147 1.537,-0.5716 3.118,-1.0166 4.728,-1.3306 0.882,-0.1691 1.773,-0.2934 2.667,-0.3725 2.312,-0.1999 4.641,-0.0349 6.902,0.489 4.507,1.045 8.629,3.5196 11.07,7.379 0.063,0.0987 0.123,0.1959 0.184,0.2967 z"
        fill="#e6e6e6" id="path34" style="stroke:none" />
    <path
        d="m 166.239,75.329 c -5.032,-2.8652 -10.84,-4.0718 -16.597,-3.4486 -1.241,0.1121 -2.458,0.4193 -3.604,0.9103 -1.101,0.5143 -2.044,1.314 -2.731,2.3161 -0.66,0.9215 -1.228,1.9404 -2.1,2.6855 -0.453,0.3748 -0.979,0.6497 -1.545,0.8069 -0.566,0.1571 -1.158,0.1928 -1.739,0.1048 -1.452,-0.1816 -2.753,-0.8743 -4.001,-1.5959 -1.386,-0.8011 -2.813,-1.6553 -4.448,-1.7718 -0.198,-0.0141 -0.164,-0.3206 0.033,-0.3065 2.845,0.2027 4.923,2.4763 7.6,3.1993 1.25,0.3373 2.609,0.3002 3.68,-0.4967 0.938,-0.6969 1.524,-1.7471 2.184,-2.6859 0.657,-0.9874 1.545,-1.7991 2.587,-2.3642 1.117,-0.5477 2.32,-0.9012 3.556,-1.0455 2.777,-0.3691 5.596,-0.2993 8.351,0.207 3.149,0.5604 6.178,1.6553 8.957,3.2372 0.172,0.098 -0.012,0.3453 -0.183,0.248 z"
        fill="#ffffff" id="path36" style="stroke:none" />
    <path
        d="m 151.484,71.5708 c 0.027,-0.9801 0.401,-1.9188 1.056,-2.6486 0.655,-0.7298 1.547,-1.203 2.519,-1.3352 0.197,-0.026 0.246,0.2784 0.049,0.3045 -0.904,0.1214 -1.736,0.5623 -2.345,1.2431 -0.608,0.6808 -0.953,1.5566 -0.972,2.4694 -0.005,0.1984 -0.311,0.1641 -0.307,-0.0332 z"
        fill="#ffffff" id="path38" style="stroke:none" />
    <path
        d="m 143.579,74.5955 c 1.366,1.4674 3.234,2.3663 5.232,2.5175 0.198,0.0148 0.165,0.3214 -0.033,0.3066 -2.079,-0.1612 -4.021,-1.1007 -5.439,-2.6308 -0.135,-0.1459 0.106,-0.3384 0.24,-0.1933 z"
        fill="#ffffff" id="path40" style="stroke:none" />
    <path
        d="m 160.388,72.745 c -0.089,0.3771 -0.083,0.7705 0.017,1.1448 0.1,0.3743 0.292,0.7179 0.558,0.9998 0.136,0.1441 -0.105,0.3365 -0.241,0.1933 -0.292,-0.3129 -0.503,-0.6925 -0.615,-1.1058 -0.112,-0.4134 -0.12,-0.8477 -0.025,-1.2653 0.005,-0.0401 0.026,-0.0765 0.057,-0.1019 0.032,-0.0254 0.072,-0.0378 0.112,-0.0347 0.041,0.0046 0.078,0.025 0.104,0.0568 0.025,0.0318 0.037,0.0724 0.033,0.113 z"
        fill="#ffffff" id="path42" style="stroke:none" />
    <path
        d="m 14.8964,175.073 c -0.4048,1.519 -1.4684,2.783 -2.7526,3.704 -0.2093,0.151 -0.4243,0.291 -0.642,0.422 -0.067,0.039 -0.134,0.081 -0.2038,0.117 -0.0754,0.045 -0.1508,0.087 -0.2261,0.126 H 5.03357 C 4.9247,179.221 4.81862,178.998 4.71253,178.777 2.1247,173.339 0.307352,167.471 0.617222,161.494 c 0.122937,-2.318 0.609988,-4.602 1.443268,-6.769 1.65823,-4.319 4.68435,-8.057 8.84661,-9.938 0.1033,-0.048 0.2122,-0.095 0.3183,-0.14 -0.0335,0.12 -0.067,0.237 -0.1005,0.357 -0.4465,1.609 -0.7621,3.251 -0.9436,4.911 -0.0167,0.128 -0.0307,0.257 -0.0418,0.388 -0.39664,4.002 -0.0445,8.044 1.0384,11.917 0.0028,0.009 0.0056,0.02 0.0084,0.028 0.2373,0.857 0.5127,1.701 0.8263,2.532 0.2457,0.656 0.5109,1.304 0.8012,1.94 1.2116,2.672 2.8363,5.519 2.0826,8.353 z"
        fill="#e6e6e6" id="path44" style="stroke:none" />
    <path
        d="m 11.3008,144.772 c -0.0586,0.079 -0.1173,0.154 -0.1759,0.232 -1.22613,1.625 -2.26732,3.382 -3.10428,5.237 -0.04467,0.092 -0.08654,0.184 -0.12283,0.279 -1.14681,2.591 -1.88331,5.345 -2.18306,8.163 -0.00324,0.019 -0.0051,0.039 -0.00558,0.059 -0.06979,0.658 -0.11166,1.323 -0.12841,1.987 -0.06208,1.246 0.07264,2.493 0.3992,3.696 0.29775,0.983 0.81952,1.883 1.52423,2.63 0.06979,0.075 0.13958,0.151 0.21495,0.223 0.05583,0.059 0.11725,0.118 0.17587,0.174 0.56391,0.538 1.18086,1.038 1.71127,1.616 0.24311,0.259 0.46264,0.539 0.65604,0.837 0.3086,0.5 0.508,1.059 0.585,1.641 0.0769,0.583 0.0298,1.175 -0.1384,1.737 -0.3796,1.413 -1.24781,2.605 -2.13554,3.741 -0.44387,0.569 -0.9017,1.145 -1.29811,1.753 -0.14515,0.218 -0.27916,0.438 -0.40197,0.665 H 6.52153 c 0.11725,-0.227 0.24566,-0.447 0.38524,-0.665 1.01895,-1.605 2.4678,-2.984 3.21873,-4.751 0.5081,-1.192 0.6616,-2.543 0.0196,-3.713 -0.18822,-0.34 -0.41592,-0.657 -0.67841,-0.944 -0.51086,-0.578 -1.12223,-1.072 -1.67776,-1.594 -0.13958,-0.131 -0.27637,-0.265 -0.40758,-0.404 -0.69562,-0.707 -1.2324,-1.554 -1.57448,-2.485 -0.38739,-1.182 -0.57054,-2.422 -0.54157,-3.665 0,-0.793 0.04188,-1.592 0.12004,-2.384 0.00838,-0.101 0.01954,-0.204 0.03071,-0.308 0.5709,-4.989 2.46689,-9.734 5.49115,-13.743 0.0558,-0.078 0.1144,-0.153 0.1731,-0.229 0.12,-0.156 0.3405,0.062 0.2205,0.215 z"
        fill="#ffffff" id="path46" style="stroke:none" />
    <path
        d="M 5.5287,158.863 C 4.56176,158.701 3.68404,158.2 3.05229,157.45 c -0.63176,-0.75 -0.97642,-1.7 -0.97242,-2.68 5.3e-4,-0.04 0.01656,-0.078 0.04472,-0.107 0.02815,-0.028 0.06622,-0.044 0.1062,-0.045 0.03997,-0.001 0.07873,0.014 0.10809,0.041 0.02937,0.027 0.04706,0.064 0.04934,0.104 -0.00541,0.913 0.31573,1.798 0.90544,2.495 0.58972,0.697 1.40918,1.16 2.31047,1.306 0.19582,0.032 0.11927,0.331 -0.07543,0.299 z"
        fill="#ffffff" id="path48" style="stroke:none" />
    <path
        d="m 7.42666,167.111 c 1.64276,-1.148 2.79234,-2.873 3.21964,-4.831 0.0421,-0.194 0.3411,-0.119 0.299,0.075 -0.4484,2.037 -1.64843,3.83 -3.36056,5.021 -0.16327,0.114 -0.32046,-0.152 -0.15807,-0.265 z"
        fill="#ffffff" id="path50" style="stroke:none" />
    <path
        d="m 7.92825,150.208 c 0.36103,0.141 0.75138,0.19 1.136,0.143 0.38461,-0.048 0.75144,-0.19 1.06755,-0.414 0.1618,-0.115 0.3188,0.15 0.1581,0.265 -0.35043,0.246 -0.75575,0.402 -1.18058,0.456 -0.42482,0.053 -0.85622,0.001 -1.25651,-0.151 -0.03893,-0.011 -0.07215,-0.036 -0.09291,-0.071 -0.02076,-0.035 -0.02751,-0.076 -0.01886,-0.116 0.01019,-0.039 0.03557,-0.073 0.07062,-0.094 0.03506,-0.021 0.07695,-0.027 0.11659,-0.018 z"
        fill="#ffffff" id="path52" style="stroke:none" />
    <path
        d="m 32.2435,155.568 c -0.0977,0.075 -0.1982,0.15 -0.2959,0.229 -1.3254,1.014 -2.5662,2.134 -3.7101,3.35 -0.0893,0.092 -0.1786,0.187 -0.2652,0.281 l -0.0028,0.003 c -2.7123,2.945 -4.857,6.365 -6.3258,10.089 l -0.0084,0.025 c -0.0028,0.009 -0.0055,0.014 -0.0083,0.023 -0.5822,1.49 -1.0516,3.023 -1.4042,4.583 -0.3406,1.525 -0.6198,3.158 -1.153,4.626 -0.0809,0.226 -0.1703,0.45 -0.2652,0.665 H 6.39307 c 0.04187,-0.221 0.08654,-0.444 0.1312,-0.665 0.63137,-3.234 1.61814,-6.39 2.94237,-9.408 0.04467,-0.1 0.08933,-0.201 0.13958,-0.301 0.68358,-1.491 1.48748,-2.924 2.40358,-4.285 0,-10e-4 10e-5,-10e-4 2e-4,-10e-4 10e-5,-0.001 4e-4,-0.001 6e-4,-0.001 3e-4,0 6e-4,-0.001 9e-4,-0.001 4e-4,0 7e-4,0 0.0011,0 0.5031,-0.743 1.0435,-1.459 1.6191,-2.147 1.4931,-1.776 3.2567,-3.306 5.226,-4.533 0.0111,-0.009 0.0251,-0.014 0.0363,-0.023 3.9194,-2.431 8.5647,-3.59 13.0061,-2.588 h 0.0028 c 0.1145,0.026 0.2262,0.051 0.3406,0.079 z"
        fill="#e6e6e6" id="path54" style="stroke:none" />
    <path
        d="m 32.2295,155.716 c -0.0949,0.025 -0.1898,0.053 -0.2819,0.08 -1.9565,0.56 -3.8449,1.334 -5.6307,2.309 -0.0893,0.048 -0.1787,0.098 -0.268,0.148 -2.4679,1.377 -4.7081,3.128 -6.6413,5.19 -0.0015,10e-4 -0.0025,0.003 -0.0028,0.005 -0.0223,0.023 -0.0474,0.048 -0.067,0.07 -0.4466,0.48 -0.8765,0.98 -1.2841,1.494 -0.7973,0.957 -1.4397,2.034 -1.9039,3.19 -0.3547,0.964 -0.48,1.998 -0.3657,3.018 0.0084,0.103 0.0223,0.204 0.0363,0.307 0.0111,0.081 0.0223,0.162 0.0363,0.246 0.1842,1.119 0.5025,2.242 0.4131,3.383 -0.0543,0.585 -0.2319,1.152 -0.5211,1.664 -0.2892,0.511 -0.6834,0.956 -1.1566,1.304 -0.3218,0.249 -0.6656,0.467 -1.0273,0.653 -0.5172,0.267 -1.0561,0.489 -1.6108,0.665 h -1.0971 c 0.1479,-0.042 0.2931,-0.084 0.441,-0.126 0.5251,-0.148 1.0406,-0.328 1.5438,-0.539 0.2875,-0.12 0.5672,-0.258 0.8375,-0.413 1.1222,-0.645 2.0574,-1.633 2.2528,-2.954 0.1703,-1.155 -0.1591,-2.311 -0.3545,-3.442 -0.0335,-0.195 -0.0642,-0.388 -0.0809,-0.58 -0.1333,-0.979 -0.0524,-1.976 0.2372,-2.92 0.4017,-1.179 1.0022,-2.28 1.7755,-3.255 0.4784,-0.636 0.989,-1.246 1.5298,-1.829 0.067,-0.075 0.1368,-0.151 0.2094,-0.226 1.9738,-2.076 4.2529,-3.84 6.7585,-5.229 h 0.0028 c 1.8631,-1.037 3.8396,-1.856 5.8903,-2.44 h 0.0028 c 0.0921,-0.028 0.1871,-0.055 0.2792,-0.081 0.1926,-0.05 0.2373,0.254 0.0474,0.308 z"
        fill="#ffffff" id="path56" style="stroke:none" />
    <path
        d="m 19.1381,163.49 c -0.6743,-0.712 -1.0736,-1.64 -1.1266,-2.619 -0.0529,-0.979 0.2438,-1.945 0.8373,-2.726 0.1206,-0.157 0.3711,0.023 0.2503,0.181 -0.554,0.725 -0.8304,1.625 -0.7792,2.537 0.0512,0.911 0.4266,1.775 1.0584,2.434 0.1371,0.143 -0.1039,0.336 -0.2402,0.193 z"
        fill="#ffffff" id="path58" style="stroke:none" />
    <path
        d="m 15.6875,171.219 c 2.003,0.072 3.9596,-0.613 5.4797,-1.92 0.1505,-0.129 0.3436,0.111 0.1933,0.241 -1.5844,1.356 -3.622,2.065 -5.7062,1.985 -0.1986,-0.007 -0.1644,-0.314 0.0332,-0.306 z"
        fill="#ffffff" id="path60" style="stroke:none" />
    <path
        d="m 26.2646,158.024 c 0.2034,0.33 0.4857,0.604 0.8213,0.798 0.3356,0.194 0.714,0.301 1.1014,0.313 0.1986,0.005 0.1641,0.311 -0.0332,0.306 -0.4279,-0.014 -0.8457,-0.133 -1.217,-0.347 -0.3713,-0.213 -0.6846,-0.514 -0.9128,-0.876 -0.0243,-0.033 -0.0355,-0.073 -0.0311,-0.113 0.0043,-0.04 0.0239,-0.078 0.0546,-0.104 0.0319,-0.025 0.0726,-0.037 0.1132,-0.033 0.0406,0.005 0.0778,0.025 0.1036,0.056 z"
        fill="#ffffff" id="path62" style="stroke:none" />
    <path
        d="m 127.988,48.3312 c -0.287,0.3768 -0.652,0.6863 -1.072,0.9065 -0.419,0.2203 -0.881,0.346 -1.354,0.3683 -0.473,0.0223 -0.945,-0.0594 -1.382,-0.2392 -0.438,-0.1799 -0.831,-0.4536 -1.152,-0.8018 l -10.553,4.5894 1.028,-5.8907 9.863,-3.4551 c 0.621,-0.5 1.404,-0.7549 2.2,-0.7164 0.796,0.0384 1.55,0.3676 2.12,0.9251 0.569,0.5574 0.915,1.3045 0.97,2.0996 0.056,0.795 -0.182,1.5829 -0.668,2.2143 z"
        fill="#ffb8b8" id="path64" style="stroke:none" />
    <path
        d="M 120.946,50.1705 96.436,61.088 96.3834,61.0692 68.4484,51.1146 c -2.0808,-1.0874 -3.6671,-2.9292 -4.4343,-5.1481 -0.7671,-2.219 -0.657,-4.6473 0.3078,-6.7877 0.5348,-1.1826 1.314,-2.2385 2.2863,-3.0982 0.9723,-0.8597 2.1157,-1.5038 3.3549,-1.8898 1.2391,-0.386 2.546,-0.5052 3.8346,-0.3497 1.2885,0.1555 2.5295,0.5821 3.6413,1.2518 l 20.7888,12.5229 20.1582,-2.6126 z"
        fill="#e6e6e6" id="path66" style="stroke:none" />
    <path
        d="m 241.417,179.668 c 0,0.043 -0.008,0.087 -0.025,0.127 -0.017,0.04 -0.041,0.077 -0.072,0.108 -0.031,0.031 -0.067,0.055 -0.108,0.072 -0.04,0.016 -0.083,0.025 -0.127,0.025 H 0.924302 c -0.088106,0 -0.1726,-0.035 -0.2349,-0.097 -0.062301,-0.063 -0.0973,-0.147 -0.0973,-0.235 0,-0.088 0.034999,-0.173 0.0973,-0.235 0.0623,-0.063 0.146794,-0.098 0.2349,-0.098 H 241.085 c 0.044,0 0.087,0.009 0.127,0.025 0.041,0.017 0.077,0.042 0.108,0.072 0.031,0.031 0.055,0.068 0.072,0.108 0.017,0.041 0.025,0.084 0.025,0.128 z"
        fill="#cccccc" id="path68" style="stroke:none" />
    <path
        d="M 88.0565,82.8545 63.349,78.9025 c -0.648,-0.2076 -1.2434,-0.5529 -1.7454,-1.0123 -0.5019,-0.4594 -0.8985,-1.0219 -1.1625,-1.649 -0.2641,-0.6271 -0.3893,-1.304 -0.3671,-1.984 0.0223,-0.6801 0.1914,-1.3473 0.4958,-1.9558 L 61.6903,70.0602 61.255,46.5138 c -0.0524,-3.0629 0.7027,-6.0855 2.1893,-8.7639 1.4867,-2.6783 3.6525,-4.9179 6.2795,-6.4934 l 2.4094,-1.4407 1.2177,-3.0922 11.228,0.2739 0.0327,4.0555 4.021,6.4119 -1e-4,0.0265 -0.2524,34.8991 -1.1082,3.6016 1.6757,4.1891 z"
        fill="#e6e6e6" id="path70" style="stroke:none" />
    <path
        d="m 79.9931,22.8786 c 5.6343,0 10.2018,-4.5675 10.2018,-10.2018 0,-5.63423 -4.5675,-10.2017 -10.2018,-10.2017 -5.6342,0 -10.2017,4.56747 -10.2017,10.2017 0,5.6343 4.5675,10.2018 10.2017,10.2018 z"
        fill="#ffb8b8" id="path72" style="stroke:none" />
    <path
        d="m 69.37,14.9008 c -0.3043,-1.2818 -0.1646,-3.0857 0.0073,-4.3764 0.4508,-3.38381 2.33,-6.60072 5.185,-8.50621 0.5414,-0.41116 1.1846,-0.66679 1.8605,-0.73935 0.6754,-0.02819 1.4075,0.33337 1.6149,0.97679 0.1701,-0.42466 0.4255,-0.80994 0.7503,-1.13207 0.3249,-0.32212 0.7123,-0.574254 1.1383,-0.74083 0.8559,-0.3279166 1.7764,-0.4519268 2.6886,-0.3622009 1.768,0.1457339 3.4636,0.7674069 4.9068,1.7990409 1.4432,1.03164 2.5801,2.43475 3.2902,4.06043 0.2725,0.64732 1.0336,-1.74371 1.3789,-1.13208 0.3172,0.63575 0.8707,1.12207 1.542,1.35489 0.6765,0.18877 0.9513,2.97597 1.2175,2.32604 0.2066,0.48031 0.2882,1.00509 0.2374,1.52545 -0.0509,0.5204 -0.2326,1.0194 -0.5283,1.4506 -0.2957,0.4312 -0.6956,0.7806 -1.1627,1.0156 -0.467,0.235 -0.986,0.348 -1.5085,0.3285 -0.6885,-0.0258 -1.3469,-0.2791 -2.0272,-0.3881 -2.433,-0.3898 -5.0138,1.3744 -5.5339,3.7828 -0.1862,-0.6965 -0.4837,-1.3583 -0.8809,-1.96 -0.2017,-0.2992 -0.4719,-0.546 -0.7881,-0.7197 -0.3163,-0.1738 -0.6695,-0.2695 -1.0302,-0.2793 -0.6922,0.0259 -1.3006,0.4785 -1.7497,1.0058 -0.4492,0.5274 -0.7865,1.1426 -1.2389,1.6671 -1.3276,1.5391 -3.1231,5.1282 -5.015,4.8664 -1.4931,-0.2066 -3.9389,-4.0729 -4.3543,-5.8232 z"
        fill="#2f2e41" id="path74" style="stroke:none" />
    <path
        d="m 141.661,59.8917 c 0.072,-0.4651 -0.024,-0.9404 -0.269,-1.3418 -0.246,-0.4013 -0.626,-0.7027 -1.072,-0.8506 l -27.474,-9.1502 c -0.263,-0.0881 -0.542,-0.1201 -0.819,-0.094 l -6.886,0.6512 -3.951,0.3748 -7.2911,0.6891 c -0.4403,0.0421 -0.8541,0.2291 -1.1766,0.5317 -0.3225,0.3026 -0.5355,0.7037 -0.6055,1.1404 l -3.702,23.1251 c -0.0701,0.4511 0.0158,0.9125 0.2434,1.3082 0.2276,0.3957 0.5833,0.7019 1.0084,0.8681 l 27.7604,10.7155 c 0.13,0.0506 0.265,0.087 0.403,0.1084 0.201,0.0326 0.406,0.0342 0.608,0.0046 l 17.938,-2.6586 c 0.423,-0.0612 0.815,-0.2572 1.118,-0.5589 0.302,-0.3017 0.5,-0.693 0.563,-1.1158 z"
        fill="#ffffff" id="path76" style="stroke:none" />
    <path
        d="m 90.2959,75.5144 27.7601,10.7149 c 0.04,0.016 0.084,0.0212 0.127,0.015 l 17.936,-2.6582 c 0.053,-0.0073 0.102,-0.0317 0.14,-0.0696 0.038,-0.0379 0.063,-0.0871 0.07,-0.1403 l 3.607,-23.7474 c 0.008,-0.058 -0.004,-0.117 -0.034,-0.167 -0.031,-0.05 -0.078,-0.0878 -0.133,-0.107 l -0.185,-0.0625 -27.29,-9.0856 c -0.013,-0.0044 -0.025,-0.0075 -0.038,-0.0093 -0.022,-0.0039 -0.043,-0.005 -0.065,-0.0033 l -16.7952,1.5893 -1.3328,0.1251 c -0.0547,0.0058 -0.106,0.0294 -0.1461,0.0671 -0.04,0.0377 -0.0667,0.0874 -0.0758,0.1417 l -3.7014,23.1242 c -0.0091,0.0565 0.0015,0.1144 0.0299,0.164 0.0284,0.0497 0.073,0.0881 0.1263,0.1089 z"
        fill="#4e064f" id="path78" style="stroke:none" />
    <path
        d="m 95.3958,51.7834 16.7952,-1.5893 c 0.022,-0.0017 0.043,-6e-4 0.065,0.0033 0.013,0.0018 0.025,0.0049 0.038,0.0093 l 27.29,9.0856 -7.198,0.762 -2.695,0.2838 -7.665,0.8099 c -0.023,0.0012 -0.045,9e-4 -0.068,-8e-4 -0.013,-0.0041 -0.027,-0.0082 -0.043,-0.0126 z"
        fill="#270627" id="path80" style="stroke:none" />
    <path
        d="m 89.6661,77.1453 27.7599,10.7149 c 0.131,0.0503 0.266,0.0859 0.405,0.106 0.201,0.0333 0.406,0.0358 0.608,0.0076 l 17.935,-2.6582 c 0.423,-0.0617 0.816,-0.2579 1.119,-0.5598 0.303,-0.3018 0.501,-0.6932 0.564,-1.1163 l 3.604,-23.7477 c 0.053,-0.3501 0.013,-0.7081 -0.117,-1.0376 -0.018,-0.0437 -0.036,-0.0876 -0.058,-0.1288 -0.143,-0.3009 -0.36,-0.5601 -0.632,-0.7531 -0.163,-0.1174 -0.343,-0.2093 -0.534,-0.2726 l -0.033,-0.0116 -27.439,-9.1391 c -0.112,-0.0357 -0.227,-0.0635 -0.343,-0.0832 -0.158,-0.0224 -0.319,-0.0255 -0.479,-0.0092 l -6.884,0.6489 -3.951,0.3769 -7.2929,0.6885 c -0.2984,0.0279 -0.5865,0.1231 -0.8427,0.2785 -0.0198,0.0096 -0.0387,0.0209 -0.0565,0.0338 -0.0127,0.0083 -0.0248,0.0175 -0.0363,0.0274 -0.2237,0.1527 -0.414,0.3494 -0.5593,0.578 -0.1452,0.2286 -0.2424,0.4845 -0.2857,0.7519 l -3.7044,23.1267 c -0.07,0.4515 0.016,0.9133 0.2438,1.3092 0.2277,0.396 0.5837,0.7025 1.0091,0.8689 z m 2.943,-25.2242 c 0.045,-0.2772 0.168,-0.5359 0.3545,-0.7458 0.0565,-0.0675 0.1197,-0.1291 0.1886,-0.1839 0.1884,-0.1522 0.411,-0.2561 0.6487,-0.3025 0.0469,-0.0097 0.0944,-0.0164 0.1422,-0.0201 l 12.2789,-1.16 5.852,-0.5569 c 0.04,-0.0046 0.077,-0.004 0.113,-0.0061 0.089,-0.0018 0.177,0.0048 0.265,0.0197 0.08,0.0104 0.159,0.0292 0.236,0.0562 l 27.471,9.1506 c 0.022,0.0077 0.041,0.0151 0.063,0.0228 0.25,0.0929 0.469,0.2526 0.634,0.4616 0.131,0.1601 0.226,0.3458 0.28,0.5453 0.054,0.1994 0.065,0.4079 0.033,0.612 l -3.607,23.7502 c -0.047,0.3167 -0.195,0.6099 -0.422,0.8361 -0.226,0.2263 -0.52,0.3737 -0.836,0.4206 l -17.939,2.658 c -0.256,0.0367 -0.518,0.0069 -0.76,-0.0867 L 89.8452,76.6801 c -0.3182,-0.1254 -0.5843,-0.3552 -0.7547,-0.6518 -0.1704,-0.2965 -0.235,-0.6421 -0.1831,-0.9802 z"
        fill="#3f3d56" id="path82" style="stroke:none" />
    <path
        d="m 92.9029,50.6365 c 0.0147,-0.0421 0.0405,-0.0793 0.0748,-0.1078 0.0114,-0.0091 0.0234,-0.0173 0.036,-0.0246 0.0117,-0.0045 0.0236,-0.0118 0.0352,-0.0163 0.0557,-0.0224 0.1178,-0.0234 0.1742,-0.003 l 0.5778,0.2039 28.2281,9.9575 6.606,-0.698 3.697,-0.3899 7.825,-0.8284 0.699,-0.0734 0.136,-0.015 c 0.059,-0.0053 0.118,0.01 0.166,0.0433 0.049,0.0333 0.084,0.0825 0.1,0.1391 0.004,0.0131 0.006,0.0265 0.008,0.04 0.005,0.0538 -0.006,0.1079 -0.034,0.1543 -0.028,0.0465 -0.07,0.0826 -0.12,0.1031 -0.022,0.0091 -0.045,0.0154 -0.069,0.0186 l -0.952,0.0998 -7.705,0.8145 -2.694,0.2838 -7.666,0.8099 c -0.023,0.0011 -0.045,9e-4 -0.068,-8e-4 -0.013,-0.0041 -0.027,-0.0082 -0.043,-0.0126 L 93.1523,50.9913 93.0546,50.9567 c -0.0224,-0.0074 -0.0432,-0.0189 -0.0613,-0.0339 -0.0435,-0.0319 -0.0757,-0.0769 -0.092,-0.1284 -0.0162,-0.0514 -0.0157,-0.1067 0.0016,-0.1579 z"
        fill="#3f3d56" id="path84" style="stroke:none" />
    <path
        d="m 117.907,88.0386 c -0.065,-0.0104 -0.124,-0.046 -0.162,-0.0991 -0.039,-0.0531 -0.055,-0.1194 -0.046,-0.1844 l 4.053,-26.8929 c 0.01,-0.0654 0.045,-0.1242 0.098,-0.1635 0.054,-0.0393 0.12,-0.0559 0.186,-0.046 l 0.002,3e-4 c 0.065,0.0104 0.123,0.0461 0.162,0.0992 0.039,0.0531 0.055,0.1194 0.045,0.1844 l -4.052,26.8929 c -0.01,0.0654 -0.046,0.1242 -0.099,0.1635 -0.053,0.0393 -0.12,0.0558 -0.185,0.046 z"
        fill="#3f3d56" id="path86" style="stroke:none" />
    <path d="m 140.002,59.0195 -3.665,24.607 -18.324,2.6178 4.232,-25.3075 z" fill="#713872"
        id="path88" style="stroke:none" />
    <path
        d="m 128.179,86.3326 -2.695,0.2844 3.152,-26.6697 c 0,0 3.6,-0.6517 3.696,-0.3904 0.06,0.1561 -4.127,26.6047 -4.153,26.7757 z"
        fill="#ffffff" id="path90" style="stroke:none" />
    <path d="m 93.0554,50.9565 -0.0726,12.1623 21.5302,8.204 7.732,-10.3859 z" fill="#713872"
        id="path92" style="stroke:none" />
    <path
        d="m 140.857,58.6569 c -0.18,-0.2262 -0.422,-0.3948 -0.697,-0.4848 l -27.471,-9.1503 c -0.077,-0.0259 -0.156,-0.0452 -0.237,-0.0577 -0.087,-0.015 -0.176,-0.0217 -0.265,-0.0198 l 0.044,-0.2785 0.275,-0.1991 6.524,-4.723 21.786,6.6767 0.038,7.5518 z"
        fill="#4e064f" id="path94" style="stroke:none" />
    <path
        d="m 94.1526,70.4809 c 0.031,0.003 0.0615,0.0094 0.091,0.0191 l 8.4294,2.7684 c 0.105,0.0346 0.193,0.1098 0.243,0.2089 0.05,0.0991 0.059,0.214 0.024,0.3196 -0.035,0.1055 -0.11,0.1929 -0.209,0.2431 -0.099,0.0501 -0.214,0.0588 -0.32,0.0242 l -8.4285,-2.7684 c -0.0979,-0.0322 -0.1804,-0.0993 -0.232,-0.1885 -0.0515,-0.0892 -0.0683,-0.1942 -0.0473,-0.2951 0.0211,-0.1008 0.0786,-0.1903 0.1615,-0.2514 0.0829,-0.0612 0.1854,-0.0896 0.2879,-0.0799 z"
        fill="#ffffff" id="path96" style="stroke:none" />
    <path
        d="m 128.161,121.502 c 1.85,0 3.35,-1.5 3.35,-3.35 0,-1.85 -1.5,-3.35 -3.35,-3.35 -1.85,0 -3.35,1.5 -3.35,3.35 0,1.85 1.5,3.35 3.35,3.35 z"
        fill="#f2f2f2" id="path98" style="stroke:none" />
    <path
        d="m 42.7373,133.785 c 1.8501,0 3.3499,-1.5 3.3499,-3.35 0,-1.85 -1.4998,-3.35 -3.3499,-3.35 -1.8501,0 -3.35,1.5 -3.35,3.35 0,1.85 1.4999,3.35 3.35,3.35 z"
        fill="#f2f2f2" id="path100" style="stroke:none" />
    <path
        d="m 112.528,22.9572 c 1.85,0 3.35,-1.4998 3.35,-3.3499 0,-1.8502 -1.5,-3.35 -3.35,-3.35 -1.85,0 -3.35,1.4998 -3.35,3.35 0,1.8501 1.5,3.3499 3.35,3.3499 z"
        fill="#f2f2f2" id="path102" style="stroke:none" />
    <path
        d="m 118.024,75.4079 c -0.434,0.1887 -0.904,0.2798 -1.377,0.267 -0.474,-0.0128 -0.938,-0.1291 -1.362,-0.3409 -0.423,-0.2118 -0.795,-0.5138 -1.089,-0.8848 -0.294,-0.3711 -0.503,-0.802 -0.613,-1.2626 l -11.449,-1.1567 3.778,-4.6359 10.293,1.8092 c 0.786,-0.1326 1.593,0.0277 2.268,0.4506 0.676,0.4228 1.173,1.0788 1.397,1.8436 0.225,0.7648 0.161,1.5853 -0.18,2.3061 -0.34,0.7207 -0.933,1.2916 -1.666,1.6044 z"
        fill="#ffb8b8" id="path104" style="stroke:none" />
    <path
        d="M 110.982,73.5688 84.2641,71.1071 84.2274,71.065 64.7277,48.7218 c -1.2832,-1.9661 -1.7664,-4.3484 -1.3505,-6.6591 0.4158,-2.3106 1.6993,-4.375 3.5875,-5.7702 1.0448,-0.7701 2.2408,-1.3101 3.5094,-1.5846 1.2685,-0.2745 2.5808,-0.2772 3.8504,-0.008 1.2697,0.2693 2.4679,0.8043 3.5159,1.5701 1.048,0.7657 1.9219,1.7446 2.5642,2.8725 L 92.4148,60.2316 111.277,67.81 Z"
        fill="#e6e6e6" id="path106" style="stroke:none" />
    <path
        d="m 178.044,30.6008 c -0.664,-4.8669 -1.496,-10.0922 -4.929,-13.6056 -1.089,-1.1147 -2.393,-1.9974 -3.832,-2.5947 -1.44,-0.5973 -2.985,-0.897 -4.544,-0.8808 -1.558,0.0161 -3.097,0.3477 -4.524,0.9746 -1.427,0.627 -2.712,1.5365 -3.778,2.6736 -2.499,2.6656 -3.602,6.4086 -3.703,10.0609 -0.101,3.6523 0.712,7.2641 1.615,10.8046 4.775,0.0954 9.515,-0.8376 13.898,-2.7356 1.096,-0.4757 2.174,-1.0135 3.332,-1.3083 1.158,-0.2947 1.984,0.4469 3.061,0.9641 l 0.591,-1.1322 c 0.484,0.9008 1.983,0.6338 2.526,-0.2323 0.544,-0.8661 0.425,-1.9752 0.287,-2.9883 z"
        fill="#2f2e41" id="path108" style="stroke:none" />
    <path
        d="m 159.115,57.7659 -19.507,0.4172 c -0.3,-0.5178 -0.743,-0.9375 -1.277,-1.2078 -0.534,-0.2703 -1.134,-0.3797 -1.729,-0.3148 -0.595,0.0648 -1.158,0.3012 -1.621,0.6802 -0.462,0.379 -0.805,0.8844 -0.986,1.4546 -0.181,0.5702 -0.192,1.1807 -0.032,1.7572 0.159,0.5765 0.483,1.0941 0.932,1.4899 0.448,0.3958 1.002,0.6527 1.594,0.7393 0.592,0.0867 1.197,-5e-4 1.74,-0.251 2.587,0.1471 22.827,3.0198 24.035,1.1684 1.226,-1.879 7.767,-8.5105 7.767,-8.5105 l -5.028,-7.1588 z"
        fill="#9e616a" id="path110" style="stroke:none" />
    <path
        d="m 163.868,35.4158 c 5.062,0 9.165,-4.1033 9.165,-9.1649 0,-5.0617 -4.103,-9.165 -9.165,-9.165 -5.062,0 -9.165,4.1033 -9.165,9.165 0,5.0616 4.103,9.1649 9.165,9.1649 z"
        fill="#9e616a" id="path112" style="stroke:none" />
    <path
        d="m 178.547,43.8852 c -1.08,-2.1495 -1.605,-4.805 -3.907,-5.5018 -1.555,-0.4706 -7.844,0.2346 -9.261,1.029 -2.357,1.3213 -0.221,3.7972 -1.612,6.1142 -1.511,2.5188 -5.62,7.5736 -7.131,10.0924 -1.04,1.7316 2.461,6.8142 1.899,8.754 -0.562,1.9397 -0.589,4.1169 0.368,5.8951 0.857,1.5916 -0.383,2.9996 0.479,4.5886 0.896,1.6525 1.996,7.8313 1.162,9.516 l -0.559,1.675 c 5.541,0.3255 10.2,-6.2935 15.706,-6.9907 1.367,-0.1732 2.787,-0.3994 3.914,-1.1933 1.66,-1.1693 2.316,-3.2911 2.727,-5.2797 1.973,-9.7207 0.641,-19.8222 -3.785,-28.6988 z"
        fill="#3f3d56" id="path114" style="stroke:none" />
    <path
        d="m 186.854,66.582 c -0.772,-2.1065 -2.169,-11.3163 -2.169,-11.3163 l -8.745,-0.2564 4.276,10.5445 -11.667,16.3318 c 0,0 0.022,0.0359 0.061,0.0999 -0.613,-0.0985 -1.242,-0.0094 -1.804,0.2554 -0.562,0.2648 -1.031,0.6931 -1.345,1.2289 -0.315,0.5357 -0.46,1.1539 -0.418,1.7736 0.043,0.6198 0.272,1.2122 0.657,1.6999 0.384,0.4876 0.908,0.8477 1.5,1.0331 0.593,0.1855 1.228,0.1876 1.823,0.0062 0.594,-0.1814 1.119,-0.538 1.507,-1.023 0.388,-0.4851 0.621,-1.076 0.668,-1.6954 0.043,0.0246 0.093,0.0335 0.142,0.0251 0.049,-0.0084 0.093,-0.0335 0.125,-0.071 1.299,-1.629 16.161,-16.5298 15.389,-18.6363 z"
        fill="#9e616a" id="path116" style="stroke:none" />
    <path
        d="m 187.743,60.7652 c -0.803,-3.3876 -1.611,-6.7935 -2.964,-10.0012 -1.354,-3.2076 -3.291,-6.2373 -6.016,-8.4043 -0.871,-0.6928 -1.844,-1.3043 -2.937,-1.5197 -1.091,-0.2154 -2.322,0.0257 -3.089,0.8323 -1.227,1.2907 -0.858,3.3625 -0.408,5.0857 1.327,5.0809 2.655,10.1618 3.982,15.2426 3.833,-0.4062 7.665,-0.8125 11.498,-1.2188 z"
        fill="#3f3d56" id="path118" style="stroke:none" />
    <path
        d="m 175.098,27.5224 c -0.337,-2.2171 -0.69,-4.4528 -1.483,-6.5404 -0.793,-2.0876 -2.071,-4.043 -3.904,-5.2256 -2.903,-1.8724 -6.662,-1.5112 -9.916,-0.4342 -2.517,0.8329 -4.974,2.0989 -6.749,4.1342 -1.775,2.0353 -2.772,4.9394 -2.112,7.6006 3.472,-0.8202 6.943,-1.6405 10.415,-2.4607 l -0.38,0.2685 c 1.14,0.5684 2.135,1.3891 2.911,2.3997 0.775,1.0106 1.31,2.1846 1.564,3.4328 0.249,1.2634 0.213,2.5662 -0.104,3.8141 -0.317,1.2479 -0.907,2.4098 -1.729,3.4016 2.368,-0.84 4.736,-1.6799 7.104,-2.5198 1.461,-0.5184 3.025,-1.1158 3.892,-2.4456 1.005,-1.5418 0.771,-3.5853 0.491,-5.4252 z"
        fill="#2f2e41" id="path120" style="stroke:none" />
    <defs id="defs127">
        <clipPath id="clip0_1426_17378">
            <rect width="240.834" height="180" fill="white" transform="translate(0.582825)"
                id="rect124" />
        </clipPath>
    </defs>
</svg>
